<svg width="49" height="48" viewBox="0 0 49 48" fill="none" xmlns="http://www.w3.org/2000/svg">
<path d="M24.5 0C37.7548 0 48.5 10.7452 48.5 24C48.5 37.2548 37.7548 48 24.5 48C11.2452 48 0.5 37.2548 0.5 24C0.5 10.7452 11.2452 0 24.5 0Z" fill="#12382D" fill-opacity="0.2"/>
<path d="M24.5 0C37.7548 0 48.5 10.7452 48.5 24C48.5 37.2548 37.7548 48 24.5 48C11.2452 48 0.5 37.2548 0.5 24C0.5 10.7452 11.2452 0 24.5 0Z" stroke="#D4CEC8"/>
<path d="M34.5618 23.0618L26.0063 14.5063C25.3313 13.8312 24.2368 13.8312 23.5618 14.5063L15.0063 23.0618C14.3312 23.7368 14.3312 24.8313 15.0063 25.5063L23.5618 34.0618C24.2368 34.7369 25.3313 34.7369 26.0063 34.0618L34.5618 25.5063C35.2369 24.8313 35.2369 23.7368 34.5618 23.0618Z" stroke="#666360" stroke-width="2" stroke-linecap="round" stroke-linejoin="round"/>
</svg>
