<svg width="49" height="48" viewBox="0 0 49 48" fill="none" xmlns="http://www.w3.org/2000/svg">
<path d="M24.5 0C37.7548 0 48.5 10.7452 48.5 24C48.5 37.2548 37.7548 48 24.5 48C11.2452 48 0.5 37.2548 0.5 24C0.5 10.7452 11.2452 0 24.5 0Z" fill="#12382D" fill-opacity="0.2"/>
<path d="M24.5 0C37.7548 0 48.5 10.7452 48.5 24C48.5 37.2548 37.7548 48 24.5 48C11.2452 48 0.5 37.2548 0.5 24C0.5 10.7452 11.2452 0 24.5 0Z" stroke="#D4CEC8"/>
<path d="M25.5 14L15.5 26H24.5L23.5 34L33.5 22H24.5L25.5 14Z" stroke="#666360" stroke-width="2" stroke-linecap="round" stroke-linejoin="round"/>
</svg>
