<svg width="20" height="20" viewBox="0 0 20 20" fill="none" xmlns="http://www.w3.org/2000/svg">
<path d="M4.3493 9.51752C4.3493 8.31387 5.33585 7.3493 6.51752 7.3493H9.33703V6.02473H6.51752C4.56639 6.02473 3 7.59113 3 9.54225C3 11.4686 4.56639 13.0598 6.51752 13.0598H9.33703V11.6857H6.51752C5.31387 11.6857 4.3493 10.7212 4.3493 9.51752ZM7.21552 10.2155H12.8298V8.81951H7.21552V10.2155ZM13.5526 6H10.733V7.3493H13.5526C14.7562 7.3493 15.7208 8.33585 15.7208 9.51752C15.7208 10.6992 14.7342 11.6857 13.5526 11.6857H10.733V13.0103H13.5526C15.4789 13.0103 17.0701 11.4439 17.0701 9.49278C17.0701 7.56365 15.4789 6 13.5526 6Z" fill="#212529"/>
</svg>
