<svg width="20" height="20" viewBox="0 0 20 20" fill="none" xmlns="http://www.w3.org/2000/svg">
<path d="M16.857 6.60541L16.4816 6.08169L11.9589 9.30875C11.7894 9.42984 11.6895 9.62358 11.6895 9.83549C11.6895 10.0444 11.7894 10.2381 11.9589 10.3622L16.4816 13.5893C16.6784 13.7285 16.9387 13.7497 17.1537 13.6377C17.3686 13.5287 17.5048 13.3047 17.5048 13.0625V6.60541C17.5048 6.36323 17.3686 6.14224 17.1537 6.03023C16.9387 5.92125 16.6784 5.93941 16.4816 6.07867L16.857 6.60541H16.2122V11.8093L13.4453 9.83549L17.2294 7.13215L16.857 6.60541Z" fill="#212529"/>
<path d="M3.93969 5.3158V5.96061H11.0447C11.4019 5.96061 11.6895 6.25122 11.6895 6.60541V13.0626C11.6895 13.4198 11.3989 13.7074 11.0447 13.7074H3.93969C3.58247 13.7074 3.29488 13.4167 3.29488 13.0626V6.60541C3.29488 6.2482 3.5855 5.96061 3.93969 5.96061V5.3158V4.66797C2.86804 4.66797 2.00224 5.53376 2.00224 6.60541V13.0626C2.00224 14.1342 2.86804 15 3.93969 15H11.0447C12.1163 15 12.9821 14.1342 12.9821 13.0626V6.60541C12.9821 5.53376 12.1163 4.66797 11.0447 4.66797H3.93969V5.3158Z" fill="#212529"/>
</svg>
