<svg width="30" height="30" viewBox="0 0 30 30" fill="none" xmlns="http://www.w3.org/2000/svg">
<path d="M25.0833 4H4.91667C2.89162 4 1.25 5.64162 1.25 7.66667V22.3333C1.25 24.3584 2.89162 26 4.91667 26H25.0833C27.1084 26 28.75 24.3584 28.75 22.3333V7.66667C28.75 5.64162 27.1084 4 25.0833 4Z" fill="#071B65"/>
<path d="M5.00911 4H4.91653C3.10061 4 1.60278 5.32367 1.31128 7.05617L24.9906 26H25.0832C26.8991 26 28.3969 24.6763 28.6884 22.9438L5.00911 4Z" fill="white"/>
<path d="M20.7292 17.75H18.4375L27.5437 25.0347C27.8984 24.7112 28.189 24.3225 28.3952 23.8825L20.7292 17.75Z" fill="#B92932"/>
<path d="M1.60474 6.1166L9.27082 12.25H11.5625L2.45632 4.96527C2.10157 5.28885 1.81099 5.6766 1.60474 6.1166Z" fill="#B92932"/>
<path d="M4.91653 26H5.00911L28.6884 7.05617C28.3969 5.32275 26.8991 4 25.0832 4H24.9906L1.31128 22.9438C1.60278 24.6772 3.10061 26 4.91653 26Z" fill="white"/>
<path d="M17.75 4H12.25V26H17.75V4Z" fill="white"/>
<path d="M28.75 12.25H1.25V17.75H28.75V12.25Z" fill="white"/>
<path d="M16.8332 4H13.1665V26H16.8332V4Z" fill="#B92932"/>
<path d="M28.75 16.8334V13.1667L1.25 13.1667V16.8334H28.75Z" fill="#B92932"/>
<path d="M26.2035 4.1925L17.75 10.9538V12.25H18.4375L27.5519 4.97167C27.1678 4.61967 26.7104 4.35659 26.2035 4.1925Z" fill="#B92932"/>
<path d="M2.46729 25.0439C2.84679 25.3867 3.29595 25.6452 3.7937 25.8066L12.25 19.0416V17.7509H11.5625L2.46729 25.0439Z" fill="#B92932"/>
<path opacity="0.15" d="M25.0833 4H4.91667C2.89175 4 1.25 5.64175 1.25 7.66667V22.3333C1.25 24.3582 2.89175 26 4.91667 26H25.0833C27.1083 26 28.75 24.3582 28.75 22.3333V7.66667C28.75 5.64175 27.1083 4 25.0833 4ZM27.8333 22.3333C27.8333 23.8495 26.5995 25.0833 25.0833 25.0833H4.91667C3.4005 25.0833 2.16667 23.8495 2.16667 22.3333V7.66667C2.16667 6.1505 3.4005 4.91667 4.91667 4.91667H25.0833C26.5995 4.91667 27.8333 6.1505 27.8333 7.66667V22.3333Z" fill="black"/>
<path opacity="0.2" d="M25.0832 4.91669H4.9165C3.39759 4.91669 2.1665 6.14777 2.1665 7.66669V8.58335C2.1665 7.06444 3.39759 5.83335 4.9165 5.83335H25.0832C26.6021 5.83335 27.8332 7.06444 27.8332 8.58335V7.66669C27.8332 6.14777 26.6021 4.91669 25.0832 4.91669Z" fill="white"/>
</svg>
