<svg width="32" height="32" viewBox="0 0 32 32" fill="none" xmlns="http://www.w3.org/2000/svg">
<path d="M26.0833 5H5.91667C3.89162 5 2.25 6.64162 2.25 8.66667V23.3333C2.25 25.3584 3.89162 27 5.91667 27H26.0833C28.1084 27 29.75 25.3584 29.75 23.3333V8.66667C29.75 6.64162 28.1084 5 26.0833 5Z" fill="#B92932"/>
<path d="M29.75 14.1667H15.0833V5H11.4167V14.1667H2.25V17.8333H11.4167V27H15.0833V17.8333H29.75V14.1667Z" fill="white"/>
<path opacity="0.15" d="M26.0833 5H5.91667C3.89175 5 2.25 6.64175 2.25 8.66667V23.3333C2.25 25.3582 3.89175 27 5.91667 27H26.0833C28.1083 27 29.75 25.3582 29.75 23.3333V8.66667C29.75 6.64175 28.1083 5 26.0833 5ZM28.8333 23.3333C28.8333 24.8495 27.5995 26.0833 26.0833 26.0833H5.91667C4.4005 26.0833 3.16667 24.8495 3.16667 23.3333V8.66667C3.16667 7.1505 4.4005 5.91667 5.91667 5.91667H26.0833C27.5995 5.91667 28.8333 7.1505 28.8333 8.66667V23.3333Z" fill="black"/>
<path opacity="0.2" d="M26.0832 5.91669H5.9165C4.39759 5.91669 3.1665 7.14777 3.1665 8.66669V9.58335C3.1665 8.06444 4.39759 6.83335 5.9165 6.83335H26.0832C27.6021 6.83335 28.8332 8.06444 28.8332 9.58335V8.66669C28.8332 7.14777 27.6021 5.91669 26.0832 5.91669Z" fill="white"/>
</svg>
