<?xml version="1.0" encoding="UTF-8"?>
<svg id="Layer_1" xmlns="http://www.w3.org/2000/svg" version="1.1" viewBox="0 0 20 24">
  <defs>
    <style>
      .st0 {
        fill: #a84e42;
      }
    </style>
  </defs>
  <path class="st0" d="M19.2,3.4h-5v-1.3h0c0-.3,0-.6-.2-.8-.2-.4-.4-.7-.8-.9-.2-.1-.4-.2-.5-.3-.2,0-.4,0-.6,0h-4.2c-.3,0-.6,0-.8.2-.4.2-.7.4-.9.8-.1.2-.2.4-.3.6,0,.2,0,.4,0,.6h0v1.3H.8c-.5,0-.8.4-.8.9s.4.9.8.9h.9l1,16.3h0c0,.3,0,.7.2,1,.2.5.5.8.9,1.1.2.1.4.2.7.3.2,0,.5.1.7.1h9.6c.3,0,.7,0,1-.2.4-.2.8-.5,1.1-.9s.4-.9.5-1.4l1-16.3h.9c.5,0,.8-.4.8-.9,0-.5-.4-.9-.8-.9ZM7.5,2.1h0c0,0,0-.1,0-.2,0,0,0-.1.2-.2,0,0,0,0,.1,0,0,0,0,0,.1,0h4.2c0,0,.1,0,.2,0,0,0,.1,0,.2.2,0,0,0,0,0,.1,0,0,0,0,0,.1h0v1.3h-5v-1.3ZM15.6,21.4c0,.2,0,.3,0,.4,0,.2-.2.3-.3.4,0,0-.1,0-.2,0s-.2,0-.3,0H5.2c-.1,0-.2,0-.3,0-.1,0-.3-.2-.3-.3s-.2-.3-.2-.5h0s-1-16.2-1-16.2h13.2l-1,16.2Z"/>
  <path class="st0" d="M10,6.9c-.5,0-.8.4-.8.9v12c0,.5.4.9.8.9s.8-.4.8-.9V7.7c0-.5-.4-.9-.8-.9Z"/>
  <path class="st0" d="M6.2,6.9c-.5,0-.8.4-.8.9l.4,12c0,.5.4.8.9.8.5,0,.8-.4.8-.9l-.4-12c0-.5-.4-.8-.9-.8Z"/>
  <path class="st0" d="M12.9,7.7l-.4,12c0,.5.3.9.8.9.5,0,.8-.4.9-.8l.4-12c0-.5-.3-.9-.8-.9-.5,0-.8.4-.9.8Z"/>
</svg>
