<?xml version="1.0" encoding="UTF-8"?>
<svg id="Layer_1" xmlns="http://www.w3.org/2000/svg" version="1.1" viewBox="0 0 300 118.3">
  <!-- Generator: Adobe Illustrator 29.6.1, SVG Export Plug-In . SVG Version: 2.1.1 Build 9)  -->
  <defs>
    <style>
      .st0 {
        fill: #fff;
      }

      .st0, .st1, .st2 {
        fill-rule: evenodd;
      }

      .st3, .st2 {
        fill: #b0b0b3ff;
      }

      .st1, .st4 {
        fill: #6ac4d5ff;
      }

      .st5 {
        font-family: Montserrat-ExtraBold, Montserrat;
        font-size: 41.1px;
        font-weight: 700;
      }
    </style>
  </defs>
  <text class="st5" transform="translate(138.8 71)"><tspan class="st4" x="0" y="0">EM</tspan><tspan class="st3" x="66.9" y="0">BOL</tspan></text>
  <g>
    <g>
      <path class="st1" d="M23.9,16.9h92.1v26.3c0,14.4-11.8,26.3-26.3,26.3h-39.6c-14.4,0-26.3-11.8-26.3-26.3v-26.3Z"/>
      <g>
        <path class="st0" d="M54.4,55.6c6.8,0,12.4-5.6,12.4-12.4s-5.6-12.4-12.4-12.4-12.4,5.6-12.4,12.4,5.6,12.4,12.4,12.4Z"/>
        <path class="st0" d="M90.2,50.8c4.2,0,7.7-3.4,7.7-7.7s-3.4-7.7-7.7-7.7-7.7,3.4-7.7,7.7,3.4,7.7,7.7,7.7Z"/>
      </g>
      <path class="st1" d="M81.2,79.2c-1.6,5-6.3,8.6-11.8,8.6s-10.2-3.6-11.8-8.6c-.3-.9-.1-1.8.4-2.6.6-.8,1.4-1.2,2.4-1.2h18.1c1,0,1.8.4,2.4,1.2.6.8.7,1.7.4,2.6Z"/>
    </g>
    <g>
      <path class="st2" d="M113.1,52.4c-1.9,2.1-3,5.1-3,9v16c0,2.9-.5,3.3-2.8,3.3h-6.2c-2.6,0-4.7,2.1-4.7,4.7v1.7c0,2.6,2.1,4.7,4.7,4.7h6.2c8.8,0,13.9-5.7,13.9-14.3v-16c0-1.5.8-2.3,2-2.6,1.7-.5,4.1-.7,6.7-.8,2.5,0,4.6-2.1,4.6-4.7v-1.8c0-2.5-2-4.6-4.6-4.7-2.6,0-5-.3-6.7-.8-1.2-.4-2-1.1-2-2.6v-16c0-8.6-5.1-14.3-13.9-14.3h-6.2c-2.6,0-4.7,2.1-4.7,4.7v1.7c0,2.6,2.1,4.7,4.7,4.7h6.2c2.4,0,2.8.4,2.8,3.3v16c0,4,1.1,6.9,3,9Z"/>
      <path class="st2" d="M9.4,46.8c2.6,0,5-.3,6.7-.8,1.2-.4,2-1.1,2-2.6v-16c0-8.6,5.1-14.3,13.9-14.3h6.2c2.6,0,4.7,2.1,4.7,4.7v1.7c0,2.6-2.1,4.7-4.7,4.7h-6.2c-2.4,0-2.8.4-2.8,3.3v16c0,4-1.1,6.9-3,9,1.9,2.1,3,5.1,3,9v27.2c0,2.9.5,3.3,2.8,3.3h6.2c2.6,0,4.7,2.1,4.7,4.7v1.7c0,2.6-2.1,4.7-4.7,4.7h-6.2c-8.8,0-13.9-5.7-13.9-14.3v-27.2c0-1.5-.8-2.3-2-2.6-1.7-.5-4.1-.7-6.7-.8-2.5,0-4.6-2.1-4.6-4.7v-1.8c0-2.5,2-4.6,4.6-4.7Z"/>
      <path class="st2" d="M42.9,106.6c5.1,0,9.2-4.1,9.2-9.2s-4.1-9.2-9.2-9.2-9.2,4.1-9.2,9.2,4.1,9.2,9.2,9.2Z"/>
    </g>
  </g>
</svg>
