<svg width="24" height="25" viewBox="0 0 24 25" fill="none" xmlns="http://www.w3.org/2000/svg">
  <path d="M3.5918 18.9385C4.75848 18.9385 5.68442 19.8584 5.68457 20.9688C5.68457 22.0792 4.75858 23 3.5918 23C2.42518 22.9998 1.5 22.0791 1.5 20.9688C1.50015 19.8585 2.42527 18.9387 3.5918 18.9385ZM20.4082 18.9385C21.5747 18.9387 22.4998 19.8585 22.5 20.9688C22.5 22.0791 21.5748 22.9998 20.4082 23C19.2414 23 18.3154 22.0792 18.3154 20.9688C18.3156 19.8584 19.2415 18.9385 20.4082 18.9385ZM11.7686 9.22656C11.8464 9.23148 11.9242 9.23633 12 9.23633C12.0799 9.23633 12.157 9.23289 12.2314 9.22852V13.0322H20.6387V15.7715C20.5611 15.7666 20.4837 15.7637 20.4082 15.7637C20.3285 15.7637 20.2511 15.7661 20.1768 15.7705V13.4922H3.82324V15.7725C3.74549 15.7676 3.66749 15.7637 3.5918 15.7637C3.51633 15.7637 3.43885 15.7666 3.36133 15.7715V13.0322H11.7686V9.22656ZM12 2C13.1668 2 14.0918 2.92076 14.0918 4.03125C14.0916 5.14161 13.1667 6.06152 12 6.06152C10.8333 6.06152 9.90836 5.14161 9.9082 4.03125C9.9082 2.92076 10.8332 2 12 2Z" stroke="#1F2227" stroke-opacity="0.45"/>
</svg>
