<svg width="150" height="26" viewBox="0 0 150 26" fill="none" xmlns="http://www.w3.org/2000/svg">
  <g clip-path="url(#clip0_2024_1524)">
    <path d="M7.3505 20.0062C2.6372 20.0062 0 17.028 0 12.4047C0 7.80977 2.6372 4.80322 7.3505 4.80322C12.0919 4.80322 14.7291 7.80977 14.7291 12.4047C14.7291 17.028 12.0919 20.0062 7.3505 20.0062ZM7.3505 17.2265C9.76326 17.2265 11.1099 15.6381 11.1099 12.4047C11.1099 9.17123 9.76326 7.58286 7.3505 7.58286C4.9658 7.58286 3.61914 9.17123 3.61914 12.4047C3.61914 15.6381 4.9658 17.2265 7.3505 17.2265Z" fill="#1F2227"/>
    <path d="M24.8879 20.0062C22.6996 20.0062 21.2407 19.0985 20.4271 17.5102V25.2818H16.808V5.08686H20.2588V7.58286C21.0444 5.88104 22.4471 4.80322 24.8879 4.80322C28.7876 4.80322 31.2565 7.61123 31.2565 12.4047C31.2565 17.1982 28.7876 20.0062 24.8879 20.0062ZM24.0182 17.2265C26.1785 17.2265 27.6374 15.7516 27.6374 12.4047C27.6374 9.05778 26.1785 7.58286 24.0182 7.58286C21.886 7.58286 20.4271 9.05778 20.4271 12.4047C20.4271 15.7516 21.886 17.2265 24.0182 17.2265Z" fill="#1F2227"/>
    <path d="M40.1183 20.0062C35.405 20.0062 32.7678 17.028 32.7678 12.4047C32.7678 7.89486 35.2927 4.80322 39.9499 4.80322C44.6352 4.80322 47.1602 7.92323 47.1602 12.2345C47.1602 12.5465 47.1321 12.8301 47.104 13.1705H36.3869C36.4991 16.1487 37.9019 17.5102 40.1183 17.5102C41.9138 17.5102 43.0921 16.6025 43.513 15.0992H46.8515C46.2343 18.1058 44.018 20.0062 40.1183 20.0062ZM39.9499 7.29923C37.958 7.29923 36.6955 8.46214 36.3869 10.788H43.541C43.2324 8.46214 41.9419 7.29923 39.9499 7.29923Z" fill="#1F2227"/>
    <path d="M62.0963 19.7225H58.4772V10.7596C58.4772 8.77414 57.7758 7.78141 56.0083 7.78141C54.1006 7.78141 52.8661 9.17123 52.8661 11.5538V19.7225H49.247V5.08686H52.6978V7.46941C53.4833 5.90941 54.7739 4.80322 57.1305 4.80322C60.4411 4.80322 62.0963 6.50504 62.0963 10.0505V19.7225Z" fill="#1F2227"/>
    <path d="M78.9649 5.51529C79.4125 5.51529 79.7685 5.58665 80.033 5.72936C80.3178 5.85168 80.4602 6.05556 80.4602 6.34098C80.4602 6.60601 80.3788 6.83028 80.2161 7.01376C80.0533 7.17686 79.8499 7.25841 79.6058 7.25841C79.443 7.25841 79.3209 7.22783 79.2395 7.16667C79.1785 7.10551 79.1175 7.02396 79.0564 6.92202C78.9954 6.77931 78.9242 6.67737 78.8428 6.61621C78.7615 6.55505 78.6292 6.52447 78.4461 6.52447C77.5306 6.52447 76.7067 6.9526 75.9742 7.80887C75.2622 8.64475 74.7536 9.79664 74.4484 11.2645L72.6174 20.1942L71 20.5L73.6855 7.47248V7.35015C73.6855 7.12589 73.5634 7.01376 73.3193 7.01376C73.1972 7.01376 73.0345 7.04434 72.831 7.1055C72.6276 7.16667 72.4546 7.23802 72.3122 7.31957L72.2207 6.86086L74.9672 5.79052H75.547L75.0893 8.11468C75.5165 7.38073 76.0556 6.76911 76.7067 6.27982C77.378 5.77013 78.1308 5.51529 78.9649 5.51529Z" fill="#1F2227"/>
    <path d="M91.9706 9.67431C91.5637 11.6723 90.1802 13.0688 87.8203 13.8639C85.4603 14.659 82.9477 15.1177 80.2826 15.2401C80.3029 16.6264 80.659 17.7171 81.3507 18.5122C82.0628 19.287 82.9986 19.6743 84.1582 19.6743C85.4603 19.6743 86.6199 19.3073 87.6372 18.5734C88.6747 17.8191 89.4682 16.6672 90.0175 15.1177H90.6888C90.2006 16.7487 89.3766 18.0535 88.217 19.0321C87.0573 20.0107 85.6027 20.5 83.8531 20.5C82.2255 20.5 80.9641 20.0515 80.069 19.1544C79.1942 18.237 78.7568 16.9424 78.7568 15.2706C78.7568 14.5367 78.828 13.7824 78.9704 13.0076C79.4586 10.6631 80.4148 8.82824 81.839 7.50306C83.2834 6.17788 85.0025 5.51529 86.9963 5.51529C88.7053 5.51529 89.9768 5.8211 90.8109 6.43272C91.645 7.04434 92.0621 7.84964 92.0621 8.84862C92.0621 9.11366 92.0316 9.38889 91.9706 9.67431ZM80.3131 14.4144C83.1003 14.2717 85.5213 13.7824 87.5761 12.9465C89.6513 12.0902 90.6888 10.7752 90.6888 9.00153C90.6888 8.2472 90.3939 7.62538 89.8039 7.13609C89.2342 6.6264 88.2882 6.36137 86.9658 6.34098C85.2975 6.34098 83.8938 6.97299 82.7545 8.237C81.6355 9.48063 80.8726 11.0708 80.4657 13.0076C80.4047 13.3338 80.3538 13.8028 80.3131 14.4144Z" fill="#1F2227"/>
    <path d="M97.8577 20.5C96.2301 20.5 94.9789 20.0617 94.1041 19.185C93.2496 18.288 92.8224 17.0036 92.8224 15.3318C92.8224 14.659 92.9038 13.8843 93.0665 13.0076C93.5548 10.6427 94.511 8.80785 95.9351 7.50306C97.3796 6.17788 99.1292 5.51529 101.184 5.51529C102.628 5.51529 103.727 5.79052 104.48 6.34098C105.253 6.87105 105.639 7.56422 105.639 8.42049C105.639 8.52243 105.619 8.71611 105.578 9.00153C105.538 9.2054 105.426 9.39908 105.243 9.58257C105.08 9.76606 104.887 9.8578 104.663 9.8578C104.256 9.8578 104.053 9.64373 104.053 9.2156C104.053 9.11366 104.083 8.99134 104.144 8.84862C104.205 8.68553 104.246 8.55301 104.266 8.45107C104.327 8.20642 104.256 7.921 104.053 7.5948C103.87 7.24822 103.544 6.9526 103.076 6.70795C102.628 6.4633 102.049 6.34098 101.337 6.34098C99.6277 6.34098 98.173 6.9526 96.9727 8.17584C95.7927 9.3787 94.9891 10.9893 94.5619 13.0076C94.4398 13.7416 94.3788 14.4348 94.3788 15.0872C94.3788 16.5143 94.7144 17.6356 95.3858 18.4511C96.0775 19.2666 97.0032 19.6743 98.1629 19.6743C99.4446 19.6743 100.584 19.3073 101.581 18.5734C102.578 17.8191 103.371 16.6672 103.961 15.1177H104.632C104.124 16.7691 103.3 18.0841 102.161 19.0627C101.021 20.0209 99.587 20.5 97.8577 20.5Z" fill="#1F2227"/>
    <path d="M115.561 5.51529C116.009 5.51529 116.365 5.58665 116.629 5.72936C116.914 5.85168 117.057 6.05556 117.057 6.34098C117.057 6.60601 116.975 6.83028 116.812 7.01376C116.65 7.17686 116.446 7.25841 116.202 7.25841C116.039 7.25841 115.917 7.22783 115.836 7.16667C115.775 7.10551 115.714 7.02396 115.653 6.92202C115.592 6.77931 115.521 6.67737 115.439 6.61621C115.358 6.55505 115.226 6.52447 115.042 6.52447C114.127 6.52447 113.303 6.9526 112.571 7.80887C111.859 8.64475 111.35 9.79664 111.045 11.2645L109.214 20.1942L107.596 20.5L110.282 7.47248V7.35015C110.282 7.12589 110.16 7.01376 109.916 7.01376C109.794 7.01376 109.631 7.04434 109.427 7.1055C109.224 7.16667 109.051 7.23802 108.909 7.31957L108.817 6.86086L111.564 5.79052H112.143L111.686 8.11468C112.113 7.38073 112.652 6.76911 113.303 6.27982C113.974 5.77013 114.727 5.51529 115.561 5.51529Z" fill="#1F2227"/>
    <path d="M128.263 19.185C128.263 19.5316 128.416 19.7049 128.721 19.7049C128.944 19.7049 129.301 19.6233 129.789 19.4602L129.697 19.7966C129.107 20.2655 128.487 20.5 127.836 20.5C127.144 20.5 126.798 20.0923 126.798 19.2768C126.798 19.0117 126.859 18.5326 126.981 17.8395C126.432 18.5326 125.669 19.1544 124.692 19.7049C123.716 20.235 122.648 20.5 121.488 20.5C120.207 20.5 119.22 20.2248 118.528 19.6743C117.836 19.1035 117.491 18.3389 117.491 17.3807C117.491 17.1972 117.531 16.8812 117.613 16.4327L119.444 7.47248V7.35015C119.444 7.12589 119.322 7.01376 119.077 7.01376C118.833 7.01376 118.487 7.1157 118.04 7.31957L117.948 6.86086L120.695 5.79052H121.275L119.169 16.0963C119.088 16.4225 119.047 16.7691 119.047 17.1361C119.047 17.9516 119.291 18.5734 119.779 19.0015C120.268 19.4297 120.969 19.6437 121.885 19.6437C122.658 19.6437 123.431 19.4704 124.204 19.1239C124.998 18.7569 125.689 18.237 126.279 17.5642C126.869 16.8914 127.286 16.1065 127.531 15.2095L129.087 7.65596V7.50306C129.087 7.2788 128.975 7.1157 128.751 7.01376C128.527 7.01376 128.182 7.1157 127.714 7.31957L127.653 6.86086L130.063 5.88226L130.582 5.79052H130.948L128.293 18.7875C128.273 18.8894 128.263 19.0219 128.263 19.185Z" fill="#1F2227"/>
    <path d="M137.85 2.9159C137.524 2.9159 137.27 2.83435 137.087 2.67125C136.904 2.50816 136.812 2.28389 136.812 1.99847C136.812 1.54995 136.955 1.19317 137.24 0.928135C137.524 0.642712 137.881 0.5 138.308 0.5C138.613 0.5 138.857 0.58155 139.04 0.744649C139.223 0.907748 139.315 1.13201 139.315 1.41743C139.315 1.84557 139.162 2.20234 138.857 2.48777C138.572 2.77319 138.237 2.9159 137.85 2.9159ZM135.073 20.5C134.727 20.5 134.442 20.4185 134.219 20.2554C134.015 20.0923 133.913 19.8476 133.913 19.5214C133.913 19.3787 133.924 19.2666 133.944 19.185L136.324 7.41132L136.355 7.22783C136.355 7.04434 136.233 6.9526 135.988 6.9526C135.785 6.9526 135.429 7.05454 134.92 7.25841L134.89 6.76911L137.331 5.79052L137.819 5.69878H138.186L135.5 18.7875C135.48 18.8894 135.47 19.0117 135.47 19.1544C135.47 19.5214 135.643 19.7049 135.988 19.7049C136.212 19.7049 136.548 19.6233 136.996 19.4602L136.904 19.7966C136.64 20.0209 136.334 20.1942 135.988 20.3165C135.663 20.4388 135.358 20.5 135.073 20.5Z" fill="#1F2227"/>
    <path d="M143.652 16.4939C143.551 17.0647 143.5 17.5031 143.5 17.8089C143.5 18.4409 143.642 18.9098 143.927 19.2156C144.232 19.5214 144.69 19.6743 145.3 19.6743C145.89 19.6743 146.43 19.5316 146.918 19.2462C147.426 18.9404 147.793 18.4715 148.016 17.8395H148.81C148.545 18.7365 148.047 19.4093 147.315 19.8578C146.602 20.2859 145.84 20.5 145.026 20.5C143.988 20.5 143.215 20.3063 142.706 19.919C142.218 19.5112 141.974 18.8588 141.974 17.9618C141.974 17.4521 142.025 16.9832 142.127 16.555L144.171 6.64679H141.669L141.821 5.8211H144.324L144.812 3.46636L145.514 1.99847L146.307 1.81499H146.643L145.819 5.8211H150L149.847 6.64679H145.667L143.652 16.4939Z" fill="#1F2227"/>
  </g>
  <defs>
    <clipPath id="clip0_2024_1524">
      <rect width="150" height="25" fill="white" transform="translate(0 0.5)"/>
    </clipPath>
  </defs>
</svg>
