<svg width="48" height="48" viewBox="0 0 48 48" fill="none" xmlns="http://www.w3.org/2000/svg">
<path d="M0 24C0 10.7452 10.7452 0 24 0C37.2548 0 48 10.7452 48 24C48 37.2548 37.2548 48 24 48C10.7452 48 0 37.2548 0 24Z" fill="#1F2227" fill-opacity="0.04"/>
<path d="M24 0.5C36.9787 0.5 47.5 11.0213 47.5 24C47.5 36.9787 36.9787 47.5 24 47.5C11.0213 47.5 0.5 36.9787 0.5 24C0.5 11.0213 11.0213 0.5 24 0.5Z" stroke="#1F2227" stroke-opacity="0.1"/>
<path d="M34 35.25V32.75C34 31.4239 33.4732 30.1521 32.5355 29.2145C31.5979 28.2768 30.3261 27.75 29 27.75H19C17.6739 27.75 16.4021 28.2768 15.4645 29.2145C14.5268 30.1521 14 31.4239 14 32.75V35.25M29 17.75C29 20.5114 26.7614 22.75 24 22.75C21.2386 22.75 19 20.5114 19 17.75C19 14.9886 21.2386 12.75 24 12.75C26.7614 12.75 29 14.9886 29 17.75Z" stroke="#1F2227" stroke-opacity="0.45" stroke-width="2" stroke-linecap="round" stroke-linejoin="round"/>
</svg>
